<?xml version="1.0" encoding="UTF-8" standalone="no"?>
<!-- Generator: Adobe Illustrator 23.1.1, SVG Export Plug-In . SVG Version: 6.00 Build 0)  -->

<svg
   version="1.1"
   id="Layer_1_1_"
   x="0px"
   y="0px"
   viewBox="0 0 64 64"
   style="enable-background:new 0 0 64 64;"
   xml:space="preserve"
   sodipodi:docname="17659609151639564082.svg"
   xmlns:inkscape="http://www.inkscape.org/namespaces/inkscape"
   xmlns:sodipodi="http://sodipodi.sourceforge.net/DTD/sodipodi-0.dtd"
   xmlns="http://www.w3.org/2000/svg"
   xmlns:svg="http://www.w3.org/2000/svg"><defs
   id="defs35" /><sodipodi:namedview
   id="namedview33"
   pagecolor="#ffffff"
   bordercolor="#666666"
   borderopacity="1.0"
   inkscape:pageshadow="2"
   inkscape:pageopacity="0.0"
   inkscape:pagecheckerboard="0" />
<path
   d="M51.043,20.374l1.965-0.375c-0.363-1.898-1.291-3.63-2.683-5.006c-1.412-1.396-3.147-2.311-5.019-2.643l-0.35,1.969  c1.47,0.262,2.84,0.986,3.962,2.096C50.022,17.506,50.757,18.875,51.043,20.374z"
   id="path2" />
<path
   d="M46.187,8.368l-0.413,1.957c2.232,0.471,4.295,1.596,5.965,3.253c1.675,1.662,2.81,3.725,3.283,5.966l1.957-0.412  c-0.553-2.624-1.878-5.035-3.831-6.974C51.204,10.229,48.797,8.919,46.187,8.368z"
   id="path4" />
<path
   d="M47.247,21.251l1.936-0.502c-0.285-1.098-0.864-2.106-1.675-2.917c-0.814-0.814-1.833-1.392-2.947-1.67l-0.485,1.939  c0.762,0.191,1.46,0.587,2.018,1.145C46.652,19.805,47.051,20.498,47.247,21.251z"
   id="path6" />
<path
   d="M42,59v-5H22v5c0,0.552,0.448,1,1,1h18C41.552,60,42,59.552,42,59z M32,58c-0.552,0-1-0.448-1-1c0-0.552,0.448-1,1-1  s1,0.448,1,1C33,57.552,32.552,58,32,58z"
   id="path8" />
<path
   d="M28.142,37H31v-2.858C29.601,34.506,28.506,35.601,28.142,37z"
   id="path10" />
<path
   d="M33,41.858c1.399-0.364,2.494-1.459,2.858-2.858H33V41.858z"
   id="path12" />
<path
   d="M31,41.858V39h-2.858C28.506,40.399,29.601,41.494,31,41.858z"
   id="path14" />
<path
   d="M42,23c0-0.552-0.448-1-1-1H23c-0.552,0-1,0.448-1,1v29h20V23z M32,44c-3.309,0-6-2.691-6-6s2.691-6,6-6s6,2.691,6,6  S35.309,44,32,44z"
   id="path16" />
<path
   d="M33,34.142V37h2.858C35.494,35.601,34.399,34.506,33,34.142z"
   id="path18" />
<path
   d="M11.957,20.374c0.287-1.499,1.021-2.868,2.125-3.959c1.122-1.109,2.492-1.834,3.962-2.096l-0.35-1.969  c-1.872,0.332-3.607,1.246-5.019,2.643c-1.392,1.376-2.32,3.107-2.683,5.006L11.957,20.374z"
   id="path20" />
<path
   d="M9.852,12.158c-1.953,1.938-3.277,4.35-3.831,6.974l1.957,0.412c0.473-2.241,1.608-4.304,3.283-5.966  c1.67-1.657,3.732-2.782,5.965-3.253l-0.413-1.957C14.203,8.919,11.796,10.229,9.852,12.158z"
   id="path22" />
<path
   d="M18.439,16.162c-1.113,0.278-2.132,0.855-2.947,1.67c-0.811,0.811-1.39,1.819-1.675,2.917l1.936,0.502  c0.196-0.753,0.595-1.446,1.153-2.005c0.558-0.558,1.256-0.953,2.018-1.145L18.439,16.162z"
   id="path24" />
<polygon
   points="53,37 46,37 46,39 53,39 53,42 59,38 53,34 "
   id="polygon26" />
<polygon
   points="31,9 31,18 33,18 33,9 36,9 32,3 28,9 "
   id="polygon28" />
<polygon
   points="11,39 17,39 17,37 11,37 11,34 5,38 11,42 "
   id="polygon30" />
</svg>
